Description

Sinopse e detalhes

Ao passear de lancha pela Baía de Guanabara João Gaspar, um idoso senador, conta para a enfermeira que entre os anos 50 e 60 se envolveu com uma exótica dançarina, Luz Del Fuego (Lucélia Santos), que adotou este nome artístico ao ver o nome na tampa de um batom. Já adulta e no teatro de revista, ela participa de um coro de vedetes e é presa pela primeira vez, por atentado violento ao pudor. Na cadeia faz amizade com um repórter, Indalécio, e um gay, Agildo, que ficariam ligados a ela para sempre. Estréia no teatro completamente nua, envolta por cobras. O sucesso gera uma mesa-redonda na TV Tupi, composta por um padre, uma vedete, um delegado e o presidente da Liga de Proteção aos Animais. Neste época se envolveu com João Gaspar, político casado, que estava em campanha para o Senado. João é homenageado por Luz, que lhe dá um beijo na boca publicamente, mas mesmo assim é eleito. No auge da fama Luz vende sua bela mansão, que lhe tinha sido dada por Gaspar, abandona o teatro e se muda para a Ilha do Sol, onde pretende criar um paraíso ecológico naturalista.


Format : Matroska
Format version : Version 2
File size : 557 MiB
Duration : 1h 39mn
Overall bit rate : 782 Kbps
Encoded date : UTC 2013-05-12 10:34:44
Writing application : mkvmerge v5.8.0 ('No Sleep / Pillow') built on Sep 2 2012 15:37:04
Writing library : libebml v1.2.3 + libmatroska v1.3.0

Video
ID : 1
Format : AVC
Format/Info : Advanced Video Codec
Format profile : High@L4.1
Format settings, CABAC : Yes
Format settings, ReFrames : 4 frames
Muxing mode : Header stripping
Codec ID : V_MPEG4/ISO/AVC
Duration : 1h 39mn
Bit rate : 382 Kbps
Width : 512 pixels
Height : 256 pixels
Display aspect ratio : 2.000
Frame rate mode : Constant
Frame rate : 29.970 fps
Color space : YUV
Chroma subsampling : 4:2:0
Bit depth : 8 bits
Scan type : Progressive
Bits/(Pixel*Frame) : 0.097
Stream size : 272 MiB (49%)
Title : Luz Del Fuego Lucélia Santos ( by fantasma )
Writing library : x264 core 130 r2273 b3065e6
Encoding settings : cabac=1 / ref=3 / deblock=1:0:0 / analyse=0x3:0x113 / me=hex / subme=7 / psy=1 / psy_rd=1.00:0.00 / mixed_ref=1 / me_range=16 / chroma_me=1 / trellis=1 / 8x8dct=1 / cqm=0 / deadzone=21,11 / fast_pskip=1 / chroma_qp_offset=-2 / threads=3 / lookahead_threads=1 / sliced_threads=0 / nr=0 / decimate=1 / interlaced=0 / bluray_compat=0 / constrained_intra=0 / bframes=3 / b_pyramid=2 / b_adapt=1 / b_bias=0 / direct=1 / weightb=1 / open_gop=0 / weightp=2 / keyint=300 / keyint_min=29 / scenecut=40 / intra_refresh=0 / rc_lookahead=40 / rc=crf / mbtree=1 / crf=23.0 / qcomp=0.60 / qpmin=0 / qpmax=69 / qpstep=4 / vbv_maxrate=62500 / vbv_bufsize=78125 / crf_max=0.0 / nal_hrd=none / ip_ratio=1.40 / aq=1:1.00
Language : Portuguese
Default : Yes
Forced : No

Audio
ID : 2
Format : AC-3
Format/Info : Audio Coding 3
Mode extension : CM (complete main)
Format settings, Endianness : Big
Muxing mode : Header stripping
Codec ID : A_AC3
Duration : 1h 39mn
Bit rate mode : Constant
Bit rate : 384 Kbps
Channel(s) : 2 channels
Channel positions : Front: L R
Sampling rate : 48.0 KHz
Bit depth : 16 bits
Compression mode : Lossy
Stream size : 274 MiB (49%)
Title : by fantasma
Language : Portuguese
Default : Yes
Forced : No

Text #1
ID : 3
Format : UTF-8
Codec ID : S_TEXT/UTF8
Codec ID/Info : UTF-8 Plain Text
Title : Credito
Default : No
Forced : No

Text #2
ID : 4
Format : UTF-8
Codec ID : S_TEXT/UTF8
Codec ID/Info : UTF-8 Plain Text
Title : Credito
Language : Portuguese
Default : Yes
Forced : No